<svg width="122" height="125" viewBox="0 0 122 125" fill="none" xmlns="http://www.w3.org/2000/svg">
<path fill-rule="evenodd" clip-rule="evenodd" d="M64.5303 0.0418896C87.7822 0.737676 108.448 15.0778 116.461 38.4621C125.585 65.0854 124.815 97.1431 103.645 114.182C81.6239 131.906 51.2818 126.245 29.0621 108.808C7.15652 91.6167 -6.12688 62.5184 2.82664 35.0617C11.3111 9.04344 38.8048 -0.727917 64.5303 0.0418896Z" fill="#01FEBF" fill-opacity="0.1"/>
<g clip-path="url(#clip0_197_244)">
<path d="M82.875 78.375H39.125V81.6875H82.875V78.375Z" fill="#3A3AE8"/>
<path d="M78.1875 50.2188C78.6019 50.2188 78.9993 50.0443 79.2924 49.7337C79.5854 49.4231 79.75 49.0018 79.75 48.5625V43.5938C79.7499 43.2534 79.6508 42.9213 79.4663 42.6428C79.2817 42.3642 79.0207 42.1526 78.7188 42.0369L61.5312 35.4119C61.188 35.2803 60.812 35.2803 60.4688 35.4119L43.2812 42.0369C42.9793 42.1526 42.7183 42.3642 42.5337 42.6428C42.3492 42.9213 42.2501 43.2534 42.25 43.5938V48.5625C42.25 49.0018 42.4146 49.4231 42.7076 49.7337C43.0007 50.0443 43.3981 50.2188 43.8125 50.2188H45.375V71.75H42.25V75.0625H79.75V71.75H76.625V50.2188H78.1875ZM45.375 44.7532L61 38.7244L76.625 44.7532V46.9063H45.375V44.7532ZM64.125 71.75H57.875V50.2188H64.125V71.75ZM48.5 50.2188H54.75V71.75H48.5V50.2188ZM73.5 71.75H67.25V50.2188H73.5V71.75Z" fill="#3A3AE8"/>
</g>
<defs>
<clipPath id="clip0_197_244">
<rect width="50" height="53" fill="white" transform="translate(36 32)"/>
</clipPath>
</defs>
</svg>
