<svg width="134" height="123" viewBox="0 0 134 123" fill="none" xmlns="http://www.w3.org/2000/svg">
<path fill-rule="evenodd" clip-rule="evenodd" d="M56.2886 0.18348C87.0736 -1.47755 121.488 7.92568 131.341 37.139C141.431 67.0553 121.401 97.5089 94.9037 114.675C72.5545 129.155 44.1714 123.495 23.0196 107.317C3.57046 92.441 -4.64946 67.4693 2.61234 44.0847C10.1911 19.6796 30.7713 1.56029 56.2886 0.18348Z" fill="#E6FFF9"/>
<path d="M86.9791 38.5833H48.0208C47.1091 38.5833 46.2348 38.9454 45.5901 39.5901C44.9455 40.2347 44.5833 41.1091 44.5833 42.0208V67.2291C44.5833 68.1408 44.9455 69.0151 45.5901 69.6598C46.2348 70.3044 47.1091 70.6666 48.0208 70.6666H57.6229L51.5729 82.7666C51.4447 83.0409 51.428 83.3543 51.5264 83.6407C51.6247 83.9271 51.8303 84.1642 52.1 84.302C52.2581 84.3753 52.4299 84.4143 52.6041 84.4166C52.8379 84.44 53.0732 84.391 53.2781 84.2762C53.4831 84.1614 53.6478 83.9864 53.75 83.7749L56.7521 77.5416H78.2479L81.3646 83.7749C81.459 83.9678 81.6058 84.1302 81.7882 84.2436C81.9705 84.3571 82.1811 84.417 82.3958 84.4166C82.5701 84.4143 82.7419 84.3753 82.9 84.302C83.1696 84.1642 83.3753 83.9271 83.4736 83.6407C83.5719 83.3543 83.5552 83.0409 83.4271 82.7666L77.3771 70.6666H86.9791C87.8908 70.6666 88.7652 70.3044 89.4098 69.6598C90.0545 69.0151 90.4166 68.1408 90.4166 67.2291V42.0208C90.4166 41.1091 90.0545 40.2347 89.4098 39.5901C88.7652 38.9454 87.8908 38.5833 86.9791 38.5833ZM57.8979 75.2499L60.1896 70.6666H74.8104L77.1021 75.2499H57.8979ZM88.125 67.2291C88.125 67.533 88.0043 67.8244 87.7894 68.0393C87.5745 68.2542 87.283 68.3749 86.9791 68.3749H48.0208C47.7169 68.3749 47.4255 68.2542 47.2106 68.0393C46.9957 67.8244 46.875 67.533 46.875 67.2291V42.0208C46.875 41.7169 46.9957 41.4254 47.2106 41.2105C47.4255 40.9956 47.7169 40.8749 48.0208 40.8749H86.9791C87.283 40.8749 87.5745 40.9956 87.7894 41.2105C88.0043 41.4254 88.125 41.7169 88.125 42.0208V67.2291Z" fill="#3A3AE8"/>
<path d="M81.5937 45.802L70.9375 56.4353L64.8646 50.3853C64.7617 50.2757 64.6374 50.1883 64.4995 50.1286C64.3615 50.0689 64.2128 50.0381 64.0625 50.0381C63.9122 50.0381 63.7634 50.0689 63.6255 50.1286C63.4875 50.1883 63.3633 50.2757 63.2604 50.3853L51.8021 61.8436C51.6925 61.9465 51.6051 62.0707 51.5454 62.2087C51.4856 62.3467 51.4548 62.4954 51.4548 62.6457C51.4548 62.796 51.4856 62.9448 51.5454 63.0827C51.6051 63.2207 51.6925 63.3449 51.8021 63.4478C51.9049 63.5574 52.0292 63.6448 52.1671 63.7045C52.3051 63.7642 52.4538 63.795 52.6041 63.795C52.7545 63.795 52.9032 63.7642 53.0412 63.7045C53.1791 63.6448 53.3034 63.5574 53.4062 63.4478L64.0625 52.8145L70.1354 58.8645C70.2383 58.9741 70.3625 59.0614 70.5005 59.1212C70.6384 59.1809 70.7872 59.2117 70.9375 59.2117C71.0878 59.2117 71.2365 59.1809 71.3745 59.1212C71.5124 59.0614 71.6367 58.9741 71.7396 58.8645L83.1979 47.4061C83.4106 47.1934 83.5301 46.9049 83.5301 46.604C83.5301 46.3032 83.4106 46.0147 83.1979 45.802C82.9852 45.5892 82.6967 45.4697 82.3958 45.4697C82.095 45.4697 81.8065 45.5892 81.5937 45.802Z" fill="#3A3AE8"/>
</svg>
