<svg width="157" height="155" viewBox="0 0 157 155" fill="none" xmlns="http://www.w3.org/2000/svg">
<path fill-rule="evenodd" clip-rule="evenodd" d="M110.311 36.1252C129.323 51.1905 145.104 74.1358 136.128 96.6795C127.315 118.813 100.154 122.781 76.3775 121.35C53.0527 119.946 28.0332 112.179 21.4002 89.7735C14.2731 65.6992 27.022 40.2348 48.523 27.2612C68.2228 15.3745 92.2831 21.8401 110.311 36.1252Z" fill="#01FEBF" fill-opacity="0.1"/>
<path d="M98.3392 66.1169C98.0446 65.9204 97.5535 66.0187 97.2589 66.2151L89.6964 72.2062V66.5097C89.6964 66.1169 89.4999 65.8222 89.2053 65.6258C88.9107 65.4294 88.5178 65.5276 88.2232 65.724L78.991 72.4026L78.4999 66.2151C78.4999 65.9204 78.3035 65.5276 78.0089 65.4294C77.7142 65.2329 77.3214 65.3312 77.0267 65.4294L65.9285 72.1079V63.0722C66.616 62.6794 67.2053 62.1883 67.5982 61.5008C68.0892 61.6972 68.6785 61.6972 69.2678 61.6972C71.4285 61.6972 73.2946 60.5187 74.2767 58.7508C74.5714 58.7508 74.866 58.849 75.2589 58.849C79.2857 58.849 82.5267 55.6079 82.5267 51.5812C82.5267 47.5544 79.2857 44.2151 75.2589 44.2151C71.6249 44.2151 68.6785 46.7687 68.0892 50.3044C65.5357 50.7954 63.6696 52.9562 63.4732 55.6079C61.6071 55.9026 60.1339 57.5722 60.1339 59.5365C60.1339 59.6347 60.1339 59.7329 60.1339 59.7329H59.1517C58.5624 59.7329 58.1696 60.1258 58.1696 60.7151V92.3401C58.1696 92.9294 58.5624 93.3222 59.1517 93.3222H97.9464C98.5357 93.3222 98.9285 92.9294 98.9285 92.3401V67.0008C98.8303 66.6079 98.6339 66.3133 98.3392 66.1169ZM62.0982 59.5365C62.0982 58.3579 62.9821 57.474 64.1607 57.474C64.2589 57.474 64.3571 57.474 64.4553 57.474C64.7499 57.474 65.0446 57.3758 65.241 57.1794C65.4374 56.9829 65.5357 56.6883 65.5357 56.3937C65.5357 56.1972 65.5357 56.099 65.5357 55.9026C65.5357 53.9383 67.1071 52.1704 69.0714 52.0722C69.5624 52.0722 69.9553 51.6794 69.9553 51.1883C70.0535 48.3401 72.4107 46.1794 75.2589 46.1794C78.2053 46.1794 80.5624 48.5365 80.5624 51.5812C80.5624 54.5276 78.2053 56.8847 75.2589 56.8847C74.866 56.8847 74.3749 56.7865 73.9821 56.6883C73.491 56.5901 72.9999 56.7865 72.8035 57.2776C72.2142 58.7508 70.8392 59.7329 69.2678 59.7329C68.6785 59.7329 68.0892 59.6347 67.4999 59.3401C67.2053 59.2419 66.9107 59.2419 66.616 59.3401C66.3214 59.4383 66.1249 59.7329 66.0267 60.0276C66.0267 60.224 65.9285 60.4204 65.8303 60.6169C65.7321 60.1258 65.3392 59.8312 64.8482 59.8312H61.9999C62.0982 59.7329 62.0982 59.6347 62.0982 59.5365ZM61.3124 61.6972H63.9642V63.2687H60.1339V61.6972H61.3124ZM96.866 91.3579H60.1339V65.3312H63.9642V73.8758C63.9642 74.2687 64.1607 74.5633 64.4553 74.7597C64.7499 74.9562 65.1428 74.9562 65.4374 74.7597L76.6339 68.0812L77.1249 74.3669C77.1249 74.7597 77.3214 75.0544 77.7142 75.1526C78.0089 75.349 78.4017 75.2508 78.6964 75.0544L87.8303 68.474V74.2687C87.8303 74.6615 88.0267 74.9562 88.4196 75.1526C88.7142 75.349 89.2053 75.2508 89.4999 75.0544L97.0624 69.0633V91.3579H96.866Z" fill="#3A3AE8"/>
<path d="M90.5803 88.4116H94.8035C95.3928 88.4116 95.7857 88.0188 95.7857 87.4295V83.2063C95.7857 82.617 95.3928 82.2241 94.8035 82.2241H90.5803C89.991 82.2241 89.5982 82.617 89.5982 83.2063V87.4295C89.5982 88.0188 89.991 88.4116 90.5803 88.4116ZM91.5625 84.1884H93.8214V86.4473H91.5625V84.1884Z" fill="#3A3AE8"/>
<path d="M78.2053 82.2241H73.9821C73.3928 82.2241 72.9999 82.617 72.9999 83.2063V87.4295C72.9999 88.0188 73.3928 88.4116 73.9821 88.4116H78.2053C78.7946 88.4116 79.1874 88.0188 79.1874 87.4295V83.2063C79.1874 82.7152 78.6964 82.2241 78.2053 82.2241ZM77.2232 86.4473H74.9642V84.1884H77.2232V86.4473Z" fill="#3A3AE8"/>
<path d="M69.9553 76.9204H65.7321C65.1428 76.9204 64.7499 77.3133 64.7499 77.9026V82.1258C64.7499 82.7151 65.1428 83.1079 65.7321 83.1079H69.9553C70.5446 83.1079 70.9374 82.7151 70.9374 82.1258V77.9026C70.9374 77.4115 70.4464 76.9204 69.9553 76.9204ZM68.9732 81.2418H66.7142V78.9829H68.9732V81.2418Z" fill="#3A3AE8"/>
<path d="M86.4553 76.9204H82.2321C81.6428 76.9204 81.2499 77.3133 81.2499 77.9026V82.1258C81.2499 82.7151 81.6428 83.1079 82.2321 83.1079H86.4553C87.0446 83.1079 87.4374 82.7151 87.4374 82.1258V77.9026C87.4374 77.4115 87.0446 76.9204 86.4553 76.9204ZM85.4732 81.2418H83.2142V78.9829H85.4732V81.2418Z" fill="#3A3AE8"/>
</svg>
