<?xml version="1.0" encoding="UTF-8" standalone="no"?>
<!DOCTYPE svg PUBLIC "-//W3C//DTD SVG 1.1//EN" "http://www.w3.org/Graphics/SVG/1.1/DTD/svg11.dtd">
<svg width="100%" height="100%" viewBox="0 0 800 800" version="1.1" xmlns="http://www.w3.org/2000/svg" xmlns:xlink="http://www.w3.org/1999/xlink" xml:space="preserve" xmlns:serif="http://www.serif.com/" style="fill-rule:evenodd;clip-rule:evenodd;stroke-linejoin:round;stroke-miterlimit:2;">
    <g>
        <path d="M400,75C221.71,75 75,221.71 75,400C75,578.29 221.71,725 400,725C578.29,725 725,578.29 725,400C725,221.71 578.29,75 400,75ZM0,400C-0,180.566 180.566,0 400,0C619.434,-0 800,180.566 800,400C800,619.434 619.434,800 400,800C180.566,800 0,619.434 0,400Z" style="fill-opacity:0.2;"/>
        <path d="M362.5,37.5C362.5,16.928 379.428,0 400,0C619.434,-0 800,180.566 800,400C800,420.572 783.072,437.5 762.5,437.5C741.928,437.5 725,420.572 725,400C725,221.71 578.29,75 400,75C379.428,75 362.5,58.072 362.5,37.5Z" style="fill:rgb(58,58,232);stroke:rgb(58,58,232);stroke-width:1px;"/>
    </g>
</svg>
