<svg width="175" height="175" viewBox="0 0 175 175" fill="none" xmlns="http://www.w3.org/2000/svg">
<g clip-path="url(#clip0_201_250)">
<path d="M86.0403 60.6885C81.4913 60.6885 77.0445 62.0374 73.2622 64.5647C69.4798 67.0919 66.5319 70.6841 64.7911 74.8868C63.0502 79.0895 62.5948 83.714 63.4822 88.1756C64.3697 92.6371 66.5602 96.7353 69.7768 99.9519C72.9934 103.169 77.0917 105.359 81.5532 106.247C86.0148 107.134 90.6393 106.679 94.842 104.938C99.0447 103.197 102.637 100.249 105.164 96.4666C107.691 92.6843 109.04 88.2374 109.04 83.6885H86.0403V60.6885Z" stroke="#3A3AE8" stroke-width="2.3" stroke-linecap="round" stroke-linejoin="round"/>
<path d="M92.0403 60.6885V77.6885H109.04C109.04 73.1798 107.249 68.8558 104.061 65.6677C100.873 62.4795 96.549 60.6885 92.0403 60.6885Z" stroke="#3A3AE8" stroke-width="2.3" stroke-linecap="round" stroke-linejoin="round"/>
</g>
<path fill-rule="evenodd" clip-rule="evenodd" d="M48.7331 37.731C66.7394 23.0031 91.7439 20.2704 113.132 32.6634C137.483 46.773 157.931 71.4742 153.13 98.222C148.136 126.045 121.522 141.677 93.3119 143.091C65.501 144.486 36.387 131.237 25.1336 104.64C14.4697 79.4363 28.8112 54.0256 48.7331 37.731Z" fill="#01FEBF" fill-opacity="0.1"/>
<defs>
<clipPath id="clip0_201_250">
<rect width="48" height="48" fill="white" transform="translate(62.0403 59.6885)"/>
</clipPath>
</defs>
</svg>
