<svg width="142" height="144" viewBox="0 0 142 144" fill="none" xmlns="http://www.w3.org/2000/svg">
<path fill-rule="evenodd" clip-rule="evenodd" d="M18.6807 54.7749C26.2699 32.4915 42.7304 10.8286 68.0102 12.3543C92.8305 13.8524 106.797 37.9561 114.249 60.543C121.56 82.701 123.309 108.368 103.971 121.344C83.1919 135.286 53.666 131.131 33.0406 115.032C14.143 100.283 11.4846 75.9044 18.6807 54.7749Z" fill="#01FEBF" fill-opacity="0.1"/>
<path d="M70.5 78.8438V90.5938" stroke="#3A3AE8" stroke-width="2" stroke-miterlimit="10" stroke-linecap="round" stroke-linejoin="round"/>
<path d="M67.5625 62.6875C67.5625 61.0719 68.8844 59.75 70.5 59.75C72.1156 59.75 73.4375 61.0719 73.4375 62.6875" stroke="#3A3AE8" stroke-width="2" stroke-miterlimit="10" stroke-linecap="round" stroke-linejoin="round"/>
<path d="M77.8438 87.6562V64.1562C77.8438 57.6937 74.6125 52.4062 70.5 52.4062C66.3875 52.4062 63.1562 57.6937 63.1562 64.1562V87.6562" stroke="#3A3AE8" stroke-width="2" stroke-miterlimit="10" stroke-linecap="round" stroke-linejoin="round"/>
<path d="M63.1562 68.4156C62.1281 71.3531 60.3656 73.9969 58.0156 76.0532L55.225 78.4032C53.6094 79.725 52.5812 81.4875 52.2875 83.3969L51.4062 87.6563H63.1562V90.5938H70.5H77.8438V87.6563H89.5938L88.7125 83.3969C88.2719 81.4875 87.2437 79.5782 85.775 78.4032L82.9844 76.0532C80.6344 73.9969 78.8719 71.5 77.8438 68.4156" stroke="#3A3AE8" stroke-width="2" stroke-miterlimit="10" stroke-linecap="round" stroke-linejoin="round"/>
</svg>
