<svg width="117" height="104" viewBox="0 0 117 104" fill="none" xmlns="http://www.w3.org/2000/svg">
<path fill-rule="evenodd" clip-rule="evenodd" d="M57.1565 0.0104183C81.4117 -0.327048 108.142 7.48461 115.431 30.6291C122.586 53.3528 104.042 73.5915 84.7098 87.5064C65.7448 101.157 41.4455 110.947 22.1465 97.7731C1.4101 83.6179 -4.79973 55.8257 3.66664 32.1841C11.4238 10.5229 34.1573 0.330409 57.1565 0.0104183Z" fill="#01FEBF" fill-opacity="0.1"/>
<g clip-path="url(#clip0_197_246)">
<path d="M79.3547 52.5481L76.4053 46.6493C76.1436 46.1258 76.0626 45.5214 76.1775 44.9474L76.8089 41.7906C76.8194 41.7383 76.8246 41.6851 76.8246 41.6318C76.8246 33.5638 70.2609 27 62.1929 27H58.7374C49.7167 27 42.3779 34.3388 42.3779 43.3595C42.3779 47.8736 43.4619 51.6072 44.5102 55.2178C45.5855 58.9213 46.6973 62.751 46.6973 67.5478C46.6973 67.8299 46.8441 68.0917 47.0848 68.2388L60.9562 76.7157C61.2661 76.9051 61.609 77 61.9527 77C62.2731 77 62.5942 76.9174 62.8894 76.7519C63.5013 76.4087 63.8666 75.785 63.8666 75.0834V71.8671C63.8666 69.4556 65.8285 67.4938 68.24 67.4938H71.1076C73.3083 67.4938 75.1754 65.7758 75.3582 63.5826L75.9165 56.8836L78.0277 56.039C78.6847 55.7762 79.2057 55.2462 79.4572 54.5847C79.7085 53.9234 79.6712 53.181 79.3547 52.5481ZM77.943 54.0091C77.8507 54.2519 77.667 54.4387 77.4259 54.5352L74.85 55.5656C74.5652 55.6795 74.3691 55.9446 74.3437 56.2502L73.7439 63.4481C73.6305 64.8085 72.4725 65.874 71.1074 65.874H68.2397C64.9351 65.874 62.2467 68.5625 62.2467 71.8671V75.0835C62.2467 75.233 62.1528 75.3079 62.0969 75.3392C62.041 75.3706 61.9281 75.4116 61.8006 75.3337L48.3137 67.0917C48.2472 62.2809 47.1386 58.4625 46.0656 54.7662C45.002 51.1032 43.9976 47.6432 43.9976 43.3595C43.9976 35.232 50.6097 28.6198 58.7373 28.6198H62.1928C69.3414 28.6198 75.162 34.414 75.2046 41.5527L74.5892 44.6297C74.4041 45.5551 74.5346 46.5297 74.9566 47.3737L77.906 53.2724C78.0222 53.5047 78.0352 53.7664 77.943 54.0091Z" fill="#3A3AE8"/>
<path d="M61.3289 42.4416C61.7762 42.4416 62.1388 42.079 62.1388 41.6317C62.1388 41.1845 61.7762 40.8219 61.3289 40.8219H60.3465C60.2172 40.0108 59.8968 39.2631 59.4337 38.6251L60.1304 37.9284C60.4467 37.6122 60.4467 37.0993 60.1304 36.7832C59.8141 36.4669 59.3013 36.4669 58.9851 36.7832L58.2884 37.4799C57.6506 37.0166 56.9028 36.6962 56.0917 36.5671V35.5847C56.0917 35.1374 55.7291 34.7748 55.2818 34.7748C54.8346 34.7748 54.472 35.1374 54.472 35.5847V36.5671C53.6609 36.6963 52.9132 37.0167 52.2753 37.4799L51.5786 36.7832C51.2623 36.4669 50.7495 36.4669 50.4333 36.7832C50.117 37.0994 50.117 37.6123 50.4333 37.9284L51.13 38.6251C50.6667 39.263 50.3464 40.0108 50.2172 40.8219H49.2348C48.7875 40.8219 48.4249 41.1845 48.4249 41.6317C48.4249 42.079 48.7875 42.4416 49.2348 42.4416H50.2172C50.3465 43.2527 50.6668 44.0003 51.13 44.6383L50.4333 45.335C50.117 45.6513 50.117 46.1641 50.4333 46.4803C50.5914 46.6384 50.7987 46.7175 51.0059 46.7175C51.2131 46.7175 51.4205 46.6385 51.5786 46.4803L52.2753 45.7836C52.9131 46.2468 53.6609 46.5672 54.472 46.6964V47.6788C54.472 48.1261 54.8346 48.4887 55.2818 48.4887C55.7291 48.4887 56.0917 48.1261 56.0917 47.6788V46.6964C56.9028 46.5671 57.6505 46.2467 58.2884 45.7836L58.9851 46.4803C59.1432 46.6384 59.3506 46.7175 59.5578 46.7175C59.765 46.7175 59.9723 46.6385 60.1304 46.4803C60.4467 46.164 60.4467 45.6512 60.1304 45.335L59.4337 44.6383C59.8969 44.0005 60.2173 43.2527 60.3465 42.4416H61.3289ZM55.2818 45.1412C53.3468 45.1412 51.7724 43.5668 51.7724 41.6317C51.7724 39.6967 53.3468 38.1223 55.2818 38.1223C57.2169 38.1223 58.7913 39.6967 58.7913 41.6317C58.7913 43.5668 57.2169 45.1412 55.2818 45.1412Z" fill="#3A3AE8"/>
<path d="M55.2819 40.066C54.4185 40.066 53.7161 40.7685 53.7161 41.6318C53.7161 42.4951 54.4185 43.1976 55.2819 43.1976C56.1452 43.1976 56.8476 42.4951 56.8476 41.6318C56.8476 40.7685 56.1452 40.066 55.2819 40.066ZM55.2819 41.6858C55.2521 41.6858 55.2279 41.6616 55.2279 41.6318C55.2279 41.602 55.2521 41.5778 55.2819 41.5778C55.3117 41.5778 55.3358 41.602 55.3358 41.6318C55.3358 41.6616 55.3117 41.6858 55.2819 41.6858Z" fill="#3A3AE8"/>
<path d="M69.1037 37.3664H68.9516C68.8681 37.026 68.734 36.7052 68.5565 36.4134L68.6644 36.3054C68.9807 35.9891 68.9807 35.4763 68.6644 35.1601C68.3482 34.8439 67.8353 34.8439 67.5192 35.1601L67.4112 35.2681C67.1194 35.0906 66.7987 34.9565 66.4582 34.873V34.7208C66.4582 34.2735 66.0956 33.9109 65.6484 33.9109C65.2011 33.9109 64.8385 34.2735 64.8385 34.7208V34.8729C64.4981 34.9564 64.1773 35.0905 63.8855 35.268L63.7775 35.16C63.4613 34.8438 62.9484 34.8438 62.6323 35.16C62.316 35.4763 62.316 35.9891 62.6323 36.3053L62.7403 36.4133C62.5627 36.7051 62.4286 37.0258 62.3451 37.3663H62.193C61.7457 37.3663 61.3831 37.7289 61.3831 38.1761C61.3831 38.6234 61.7457 38.986 62.193 38.986H62.3451C62.4286 39.3264 62.5627 39.6472 62.7403 39.939L62.6323 40.0469C62.316 40.3632 62.316 40.876 62.6323 41.1922C62.7904 41.3503 62.9977 41.4295 63.2049 41.4295C63.4121 41.4295 63.6195 41.3504 63.7775 41.1922L63.8855 41.0842C64.1773 41.2618 64.498 41.3959 64.8385 41.4793V41.6315C64.8385 42.0788 65.2011 42.4414 65.6484 42.4414C66.0956 42.4414 66.4582 42.0788 66.4582 41.6315V41.4793C66.7986 41.3959 67.1194 41.2618 67.4112 41.0842L67.5192 41.1922C67.6773 41.3503 67.8846 41.4295 68.0918 41.4295C68.299 41.4295 68.5064 41.3504 68.6644 41.1922C68.9807 40.8759 68.9807 40.3631 68.6644 40.0469L68.5565 39.939C68.734 39.6472 68.8681 39.3265 68.9516 38.986H69.1037C69.551 38.986 69.9136 38.6234 69.9136 38.1761C69.9136 37.7289 69.551 37.3664 69.1037 37.3664ZM65.6482 39.958C64.6658 39.958 63.8665 39.1587 63.8665 38.1762C63.8665 37.1938 64.6658 36.3945 65.6482 36.3945C66.6307 36.3945 67.43 37.1938 67.43 38.1762C67.43 39.1587 66.6307 39.958 65.6482 39.958Z" fill="#3A3AE8"/>
<path d="M67.7302 45.1142C67.5065 44.7267 67.0112 44.594 66.6239 44.8178L66.4606 44.912C66.2105 44.6915 65.9169 44.5195 65.5944 44.4106V44.2233C65.5944 43.7761 65.2317 43.4135 64.7845 43.4135C64.3372 43.4135 63.9746 43.7761 63.9746 44.2233V44.4106C63.6521 44.5195 63.3583 44.6914 63.1084 44.912L62.9451 44.8178C62.5578 44.594 62.0624 44.7269 61.8388 45.1142C61.6152 45.5015 61.7479 45.9968 62.1352 46.2205L62.2969 46.3138C62.2643 46.4759 62.247 46.6433 62.247 46.8149C62.247 46.9865 62.2643 47.154 62.2969 47.3161L62.1352 47.4094C61.7479 47.633 61.6152 48.1283 61.8388 48.5157C61.9888 48.7755 62.261 48.9207 62.5409 48.9207C62.6783 48.9207 62.8176 48.8857 62.9451 48.8121L63.1084 48.7178C63.3585 48.9383 63.6521 49.1103 63.9746 49.2193V49.4065C63.9746 49.8538 64.3372 50.2164 64.7845 50.2164C65.2317 50.2164 65.5944 49.8538 65.5944 49.4065V49.2193C65.9169 49.1103 66.2106 48.9384 66.4606 48.7178L66.6239 48.8121C66.7514 48.8857 66.8907 48.9207 67.0281 48.9207C67.3079 48.9207 67.5802 48.7754 67.7302 48.5157C67.9538 48.1283 67.8211 47.633 67.4337 47.4094L67.2721 47.3161C67.3047 47.154 67.322 46.9865 67.322 46.8149C67.322 46.6433 67.3047 46.4759 67.2721 46.3138L67.4337 46.2205C67.8211 45.9968 67.9538 45.5015 67.7302 45.1142ZM63.8665 46.8149C63.8665 46.3088 64.2783 45.8971 64.7844 45.8971C65.2905 45.8971 65.7022 46.3088 65.7022 46.8149C65.7022 47.321 65.2905 47.7328 64.7844 47.7328C64.2783 47.7328 63.8665 47.321 63.8665 46.8149Z" fill="#3A3AE8"/>
</g>
<defs>
<clipPath id="clip0_197_246">
<rect width="50" height="50" fill="white" transform="translate(36 27)"/>
</clipPath>
</defs>
</svg>
