<svg width="129" height="107" viewBox="0 0 129 107" fill="none" xmlns="http://www.w3.org/2000/svg">
<path fill-rule="evenodd" clip-rule="evenodd" d="M65.1479 106.999C90.0037 106.914 117.77 101.7 126.182 78.389C135.214 53.3593 121.508 26.5605 99.7171 11.2031C78.827 -3.51947 51.2518 -3.814 30.2917 10.8094C8.08563 26.3022 -6.39257 53.4005 2.81496 78.8097C11.3836 102.456 39.9226 107.085 65.1479 106.999Z" fill="#01FEBF" fill-opacity="0.1"/>
<g clip-path="url(#clip0_197_245)">
<mask id="path-2-outside-1_197_245" maskUnits="userSpaceOnUse" x="39.4301" y="27" width="51" height="56" fill="black">
<rect fill="white" x="39.4301" y="27" width="51" height="56"/>
<path d="M88.7256 80.3113H86.6711V72.976C86.6711 72.7734 86.5983 72.5775 86.4658 72.4241L84.3268 69.9472C84.1664 69.7615 83.9331 69.6547 83.6878 69.6547H80.0036C77.326 66.8582 73.8612 66.8501 73.7214 66.8501H69.4918V64.2908C69.4918 64.2462 69.4873 64.2026 69.4806 64.1598C72.1889 63.0408 73.9006 61.174 74.9428 59.5557C75.6515 58.4553 76.1207 57.373 76.4259 56.4938C77.1533 57.8095 78.1209 58.7395 79.3212 59.2709C80.1434 59.6349 80.9886 59.7705 81.792 59.7705C84.0782 59.7704 86.0256 58.6719 86.1348 58.6092C86.4903 58.405 86.6523 57.9739 86.5126 57.5886C86.3728 57.2031 85.9809 56.9722 85.5772 57.044C85.5382 57.05 84.6158 57.1802 83.9504 56.4441C82.5776 54.9253 83.2857 51.1451 83.83 49.0268C85.7603 41.5149 85.1867 34.5628 82.3332 30.8835C80.8705 28.997 78.8469 28 76.4815 28C73.8566 28 71.8531 28.7077 70.5267 30.1035C69.5907 31.0883 69.2007 32.2112 69.0393 33.0356C67.8221 32.684 66.4841 32.5041 65.0262 32.5041C58.9778 32.5041 56.0311 35.6879 54.6243 38.3589C53.1258 41.2039 53.0452 44.0187 53.0425 44.1371C53.0424 44.1454 53.0422 44.1538 53.0423 44.1621C53.0423 44.1639 53.0423 44.1655 53.0423 44.1672V46.9087C52.5001 46.9465 51.8273 47.0879 51.2958 47.5022C50.8158 47.8761 50.5279 48.4103 50.4629 49.0471C50.3777 49.8834 50.3083 51.9716 51.5037 53.2951C51.918 53.7536 52.441 54.061 53.0423 54.2053V54.3817C53.0423 54.4222 53.0452 54.4627 53.0511 54.5028C53.0658 54.6049 53.4324 57.0329 55.0572 59.5557C56.0994 61.174 57.8111 63.0407 60.5194 64.1598C60.5127 64.2026 60.5082 64.2462 60.5082 64.2908V66.8501H56.2845C56.1463 66.8489 52.8094 66.8558 50.1535 69.4927C48.0698 71.5616 47.0133 74.6194 47.0133 78.5814V80.3113H41.2744C40.8081 80.3113 40.4301 80.6893 40.4301 81.1557C40.4301 81.622 40.8081 82 41.2744 82H88.7256C89.1919 82 89.5699 81.622 89.5699 81.1557C89.5699 80.6893 89.1919 80.3113 88.7256 80.3113ZM82.6185 71.3434V72.8196C82.6185 73.286 82.9965 73.664 83.4628 73.664H84.9826V80.3113H74.0625V71.3434H82.6185ZM69.3668 71.0172L68.2149 71.7212C68.1407 71.7666 68.074 71.8231 68.017 71.8888L67.4178 72.5809L65.9213 72.0928C67.3473 71.794 68.5259 70.8167 69.1046 69.5154L69.3668 71.0172ZM60.9675 69.6732C61.5783 70.9141 62.745 71.8336 64.1407 72.1051L62.6819 72.581L62.0826 71.889C62.0256 71.8232 61.9589 71.7667 61.8847 71.7213L60.7329 71.0173L60.9675 69.6732ZM71.7673 31.2493C72.7635 30.2137 74.3496 29.6887 76.4815 29.6887C78.3317 29.6887 79.8516 30.4388 80.9989 31.9183C83.5397 35.1945 83.9979 41.589 82.1946 48.6065C81.0701 52.9828 81.2491 56.0112 82.7266 57.6079C82.8415 57.7321 82.96 57.843 83.0806 57.942C82.1358 58.1374 81.0183 58.1781 79.9973 57.7235C78.5315 57.0708 77.5097 55.4969 76.9577 53.0475V44.1674C76.9582 43.9269 76.9221 39.0477 73.5316 35.6466C72.6968 34.8093 71.7335 34.1404 70.6512 33.6366C70.7289 33.0546 70.9776 32.0702 71.7673 31.2493ZM56.1184 39.1459C57.8496 35.8593 60.8465 34.1928 65.0262 34.1928C66.6978 34.1928 68.1764 34.4493 69.4588 34.9573C69.4688 34.9614 69.4787 34.9655 69.489 34.9691C71.4491 35.7537 72.9468 37.13 73.9621 39.0906C74.6818 40.4801 75.0053 41.8893 75.1506 42.8689C72.1268 41.3641 71.2862 38.6444 71.2488 38.5185C71.1644 38.2254 70.9287 38.0007 70.6321 37.9305C70.3354 37.8606 70.0241 37.9554 69.8171 38.1792C65.0214 43.3708 57.3129 43.4878 54.8037 43.3748C54.9266 42.4326 55.2539 40.787 56.1184 39.1459ZM52.7568 52.1632C52.151 51.4925 52.0424 50.2022 52.1428 49.2184C52.1656 48.994 52.2512 48.8989 52.3319 48.8355C52.5028 48.7013 52.7739 48.6336 53.0422 48.6046V52.4018C52.9388 52.3374 52.8436 52.2592 52.7568 52.1632ZM56.5105 58.6934C55.1894 56.6658 54.7917 54.6583 54.7308 54.3125V45.0656C55.8133 45.1182 57.7299 45.1286 59.99 44.7795C64.0889 44.1462 67.5732 42.5805 70.1512 40.2258C70.8506 41.561 72.3527 43.6397 75.269 44.7644V53.1534C75.269 53.1549 75.269 53.1564 75.269 53.1578V54.3138C75.2095 54.6583 74.8261 56.6184 73.5232 58.6414C71.6314 61.5788 68.7905 63.1935 65.0784 63.4407H64.9215C61.2326 63.1947 58.4027 61.5977 56.5105 58.6934ZM64.8393 65.1275C64.8574 65.1288 64.8757 65.1293 64.8939 65.1293H65.1062C65.1245 65.1293 65.1427 65.1288 65.1608 65.1275C66.1176 65.0655 66.9957 64.9213 67.8033 64.7146V67.6749C67.8032 67.6822 67.8022 67.6894 67.8022 67.6967C67.8022 69.2423 66.545 70.4996 64.9995 70.4996C63.4541 70.4996 62.1969 69.2423 62.1969 67.6967C62.1969 67.6959 62.1969 67.6946 62.1969 67.6946V64.7145C63.0044 64.9213 63.8824 65.0655 64.8393 65.1275ZM48.7019 78.5814C48.7019 68.6545 55.9662 68.5389 56.2784 68.5388H59.4513L58.9705 71.2927C58.9108 71.6343 59.0661 71.9776 59.3619 72.1585L60.892 73.0938L61.7723 74.1102C61.9356 74.2987 62.1699 74.4018 62.4107 74.4018C62.498 74.4018 62.5864 74.3883 62.6723 74.3603L65.0498 73.5849L67.4273 74.3603C67.5133 74.3883 67.6016 74.4018 67.689 74.4018C67.9298 74.4018 68.1642 74.2987 68.3274 74.1102L69.2078 73.0938L70.7378 72.1585C71.0335 71.9776 71.1888 71.6344 71.1292 71.2927L70.6485 68.5388H73.7277C73.7277 68.5388 73.7283 68.5388 73.7288 68.5388C73.7825 68.5388 75.5366 68.5528 77.3357 69.6547H73.2183C72.752 69.6547 72.374 70.0327 72.374 70.4991V80.3113H48.7019V78.5814Z"/>
</mask>
<path d="M88.7256 80.3113H86.6711V72.976C86.6711 72.7734 86.5983 72.5775 86.4658 72.4241L84.3268 69.9472C84.1664 69.7615 83.9331 69.6547 83.6878 69.6547H80.0036C77.326 66.8582 73.8612 66.8501 73.7214 66.8501H69.4918V64.2908C69.4918 64.2462 69.4873 64.2026 69.4806 64.1598C72.1889 63.0408 73.9006 61.174 74.9428 59.5557C75.6515 58.4553 76.1207 57.373 76.4259 56.4938C77.1533 57.8095 78.1209 58.7395 79.3212 59.2709C80.1434 59.6349 80.9886 59.7705 81.792 59.7705C84.0782 59.7704 86.0256 58.6719 86.1348 58.6092C86.4903 58.405 86.6523 57.9739 86.5126 57.5886C86.3728 57.2031 85.9809 56.9722 85.5772 57.044C85.5382 57.05 84.6158 57.1802 83.9504 56.4441C82.5776 54.9253 83.2857 51.1451 83.83 49.0268C85.7603 41.5149 85.1867 34.5628 82.3332 30.8835C80.8705 28.997 78.8469 28 76.4815 28C73.8566 28 71.8531 28.7077 70.5267 30.1035C69.5907 31.0883 69.2007 32.2112 69.0393 33.0356C67.8221 32.684 66.4841 32.5041 65.0262 32.5041C58.9778 32.5041 56.0311 35.6879 54.6243 38.3589C53.1258 41.2039 53.0452 44.0187 53.0425 44.1371C53.0424 44.1454 53.0422 44.1538 53.0423 44.1621C53.0423 44.1639 53.0423 44.1655 53.0423 44.1672V46.9087C52.5001 46.9465 51.8273 47.0879 51.2958 47.5022C50.8158 47.8761 50.5279 48.4103 50.4629 49.0471C50.3777 49.8834 50.3083 51.9716 51.5037 53.2951C51.918 53.7536 52.441 54.061 53.0423 54.2053V54.3817C53.0423 54.4222 53.0452 54.4627 53.0511 54.5028C53.0658 54.6049 53.4324 57.0329 55.0572 59.5557C56.0994 61.174 57.8111 63.0407 60.5194 64.1598C60.5127 64.2026 60.5082 64.2462 60.5082 64.2908V66.8501H56.2845C56.1463 66.8489 52.8094 66.8558 50.1535 69.4927C48.0698 71.5616 47.0133 74.6194 47.0133 78.5814V80.3113H41.2744C40.8081 80.3113 40.4301 80.6893 40.4301 81.1557C40.4301 81.622 40.8081 82 41.2744 82H88.7256C89.1919 82 89.5699 81.622 89.5699 81.1557C89.5699 80.6893 89.1919 80.3113 88.7256 80.3113ZM82.6185 71.3434V72.8196C82.6185 73.286 82.9965 73.664 83.4628 73.664H84.9826V80.3113H74.0625V71.3434H82.6185ZM69.3668 71.0172L68.2149 71.7212C68.1407 71.7666 68.074 71.8231 68.017 71.8888L67.4178 72.5809L65.9213 72.0928C67.3473 71.794 68.5259 70.8167 69.1046 69.5154L69.3668 71.0172ZM60.9675 69.6732C61.5783 70.9141 62.745 71.8336 64.1407 72.1051L62.6819 72.581L62.0826 71.889C62.0256 71.8232 61.9589 71.7667 61.8847 71.7213L60.7329 71.0173L60.9675 69.6732ZM71.7673 31.2493C72.7635 30.2137 74.3496 29.6887 76.4815 29.6887C78.3317 29.6887 79.8516 30.4388 80.9989 31.9183C83.5397 35.1945 83.9979 41.589 82.1946 48.6065C81.0701 52.9828 81.2491 56.0112 82.7266 57.6079C82.8415 57.7321 82.96 57.843 83.0806 57.942C82.1358 58.1374 81.0183 58.1781 79.9973 57.7235C78.5315 57.0708 77.5097 55.4969 76.9577 53.0475V44.1674C76.9582 43.9269 76.9221 39.0477 73.5316 35.6466C72.6968 34.8093 71.7335 34.1404 70.6512 33.6366C70.7289 33.0546 70.9776 32.0702 71.7673 31.2493ZM56.1184 39.1459C57.8496 35.8593 60.8465 34.1928 65.0262 34.1928C66.6978 34.1928 68.1764 34.4493 69.4588 34.9573C69.4688 34.9614 69.4787 34.9655 69.489 34.9691C71.4491 35.7537 72.9468 37.13 73.9621 39.0906C74.6818 40.4801 75.0053 41.8893 75.1506 42.8689C72.1268 41.3641 71.2862 38.6444 71.2488 38.5185C71.1644 38.2254 70.9287 38.0007 70.6321 37.9305C70.3354 37.8606 70.0241 37.9554 69.8171 38.1792C65.0214 43.3708 57.3129 43.4878 54.8037 43.3748C54.9266 42.4326 55.2539 40.787 56.1184 39.1459ZM52.7568 52.1632C52.151 51.4925 52.0424 50.2022 52.1428 49.2184C52.1656 48.994 52.2512 48.8989 52.3319 48.8355C52.5028 48.7013 52.7739 48.6336 53.0422 48.6046V52.4018C52.9388 52.3374 52.8436 52.2592 52.7568 52.1632ZM56.5105 58.6934C55.1894 56.6658 54.7917 54.6583 54.7308 54.3125V45.0656C55.8133 45.1182 57.7299 45.1286 59.99 44.7795C64.0889 44.1462 67.5732 42.5805 70.1512 40.2258C70.8506 41.561 72.3527 43.6397 75.269 44.7644V53.1534C75.269 53.1549 75.269 53.1564 75.269 53.1578V54.3138C75.2095 54.6583 74.8261 56.6184 73.5232 58.6414C71.6314 61.5788 68.7905 63.1935 65.0784 63.4407H64.9215C61.2326 63.1947 58.4027 61.5977 56.5105 58.6934ZM64.8393 65.1275C64.8574 65.1288 64.8757 65.1293 64.8939 65.1293H65.1062C65.1245 65.1293 65.1427 65.1288 65.1608 65.1275C66.1176 65.0655 66.9957 64.9213 67.8033 64.7146V67.6749C67.8032 67.6822 67.8022 67.6894 67.8022 67.6967C67.8022 69.2423 66.545 70.4996 64.9995 70.4996C63.4541 70.4996 62.1969 69.2423 62.1969 67.6967C62.1969 67.6959 62.1969 67.6946 62.1969 67.6946V64.7145C63.0044 64.9213 63.8824 65.0655 64.8393 65.1275ZM48.7019 78.5814C48.7019 68.6545 55.9662 68.5389 56.2784 68.5388H59.4513L58.9705 71.2927C58.9108 71.6343 59.0661 71.9776 59.3619 72.1585L60.892 73.0938L61.7723 74.1102C61.9356 74.2987 62.1699 74.4018 62.4107 74.4018C62.498 74.4018 62.5864 74.3883 62.6723 74.3603L65.0498 73.5849L67.4273 74.3603C67.5133 74.3883 67.6016 74.4018 67.689 74.4018C67.9298 74.4018 68.1642 74.2987 68.3274 74.1102L69.2078 73.0938L70.7378 72.1585C71.0335 71.9776 71.1888 71.6344 71.1292 71.2927L70.6485 68.5388H73.7277C73.7277 68.5388 73.7283 68.5388 73.7288 68.5388C73.7825 68.5388 75.5366 68.5528 77.3357 69.6547H73.2183C72.752 69.6547 72.374 70.0327 72.374 70.4991V80.3113H48.7019V78.5814Z" fill="#3A3AE8"/>
<path d="M88.7256 80.3113H86.6711V72.976C86.6711 72.7734 86.5983 72.5775 86.4658 72.4241L84.3268 69.9472C84.1664 69.7615 83.9331 69.6547 83.6878 69.6547H80.0036C77.326 66.8582 73.8612 66.8501 73.7214 66.8501H69.4918V64.2908C69.4918 64.2462 69.4873 64.2026 69.4806 64.1598C72.1889 63.0408 73.9006 61.174 74.9428 59.5557C75.6515 58.4553 76.1207 57.373 76.4259 56.4938C77.1533 57.8095 78.1209 58.7395 79.3212 59.2709C80.1434 59.6349 80.9886 59.7705 81.792 59.7705C84.0782 59.7704 86.0256 58.6719 86.1348 58.6092C86.4903 58.405 86.6523 57.9739 86.5126 57.5886C86.3728 57.2031 85.9809 56.9722 85.5772 57.044C85.5382 57.05 84.6158 57.1802 83.9504 56.4441C82.5776 54.9253 83.2857 51.1451 83.83 49.0268C85.7603 41.5149 85.1867 34.5628 82.3332 30.8835C80.8705 28.997 78.8469 28 76.4815 28C73.8566 28 71.8531 28.7077 70.5267 30.1035C69.5907 31.0883 69.2007 32.2112 69.0393 33.0356C67.8221 32.684 66.4841 32.5041 65.0262 32.5041C58.9778 32.5041 56.0311 35.6879 54.6243 38.3589C53.1258 41.2039 53.0452 44.0187 53.0425 44.1371C53.0424 44.1454 53.0422 44.1538 53.0423 44.1621C53.0423 44.1639 53.0423 44.1655 53.0423 44.1672V46.9087C52.5001 46.9465 51.8273 47.0879 51.2958 47.5022C50.8158 47.8761 50.5279 48.4103 50.4629 49.0471C50.3777 49.8834 50.3083 51.9716 51.5037 53.2951C51.918 53.7536 52.441 54.061 53.0423 54.2053V54.3817C53.0423 54.4222 53.0452 54.4627 53.0511 54.5028C53.0658 54.6049 53.4324 57.0329 55.0572 59.5557C56.0994 61.174 57.8111 63.0407 60.5194 64.1598C60.5127 64.2026 60.5082 64.2462 60.5082 64.2908V66.8501H56.2845C56.1463 66.8489 52.8094 66.8558 50.1535 69.4927C48.0698 71.5616 47.0133 74.6194 47.0133 78.5814V80.3113H41.2744C40.8081 80.3113 40.4301 80.6893 40.4301 81.1557C40.4301 81.622 40.8081 82 41.2744 82H88.7256C89.1919 82 89.5699 81.622 89.5699 81.1557C89.5699 80.6893 89.1919 80.3113 88.7256 80.3113ZM82.6185 71.3434V72.8196C82.6185 73.286 82.9965 73.664 83.4628 73.664H84.9826V80.3113H74.0625V71.3434H82.6185ZM69.3668 71.0172L68.2149 71.7212C68.1407 71.7666 68.074 71.8231 68.017 71.8888L67.4178 72.5809L65.9213 72.0928C67.3473 71.794 68.5259 70.8167 69.1046 69.5154L69.3668 71.0172ZM60.9675 69.6732C61.5783 70.9141 62.745 71.8336 64.1407 72.1051L62.6819 72.581L62.0826 71.889C62.0256 71.8232 61.9589 71.7667 61.8847 71.7213L60.7329 71.0173L60.9675 69.6732ZM71.7673 31.2493C72.7635 30.2137 74.3496 29.6887 76.4815 29.6887C78.3317 29.6887 79.8516 30.4388 80.9989 31.9183C83.5397 35.1945 83.9979 41.589 82.1946 48.6065C81.0701 52.9828 81.2491 56.0112 82.7266 57.6079C82.8415 57.7321 82.96 57.843 83.0806 57.942C82.1358 58.1374 81.0183 58.1781 79.9973 57.7235C78.5315 57.0708 77.5097 55.4969 76.9577 53.0475V44.1674C76.9582 43.9269 76.9221 39.0477 73.5316 35.6466C72.6968 34.8093 71.7335 34.1404 70.6512 33.6366C70.7289 33.0546 70.9776 32.0702 71.7673 31.2493ZM56.1184 39.1459C57.8496 35.8593 60.8465 34.1928 65.0262 34.1928C66.6978 34.1928 68.1764 34.4493 69.4588 34.9573C69.4688 34.9614 69.4787 34.9655 69.489 34.9691C71.4491 35.7537 72.9468 37.13 73.9621 39.0906C74.6818 40.4801 75.0053 41.8893 75.1506 42.8689C72.1268 41.3641 71.2862 38.6444 71.2488 38.5185C71.1644 38.2254 70.9287 38.0007 70.6321 37.9305C70.3354 37.8606 70.0241 37.9554 69.8171 38.1792C65.0214 43.3708 57.3129 43.4878 54.8037 43.3748C54.9266 42.4326 55.2539 40.787 56.1184 39.1459ZM52.7568 52.1632C52.151 51.4925 52.0424 50.2022 52.1428 49.2184C52.1656 48.994 52.2512 48.8989 52.3319 48.8355C52.5028 48.7013 52.7739 48.6336 53.0422 48.6046V52.4018C52.9388 52.3374 52.8436 52.2592 52.7568 52.1632ZM56.5105 58.6934C55.1894 56.6658 54.7917 54.6583 54.7308 54.3125V45.0656C55.8133 45.1182 57.7299 45.1286 59.99 44.7795C64.0889 44.1462 67.5732 42.5805 70.1512 40.2258C70.8506 41.561 72.3527 43.6397 75.269 44.7644V53.1534C75.269 53.1549 75.269 53.1564 75.269 53.1578V54.3138C75.2095 54.6583 74.8261 56.6184 73.5232 58.6414C71.6314 61.5788 68.7905 63.1935 65.0784 63.4407H64.9215C61.2326 63.1947 58.4027 61.5977 56.5105 58.6934ZM64.8393 65.1275C64.8574 65.1288 64.8757 65.1293 64.8939 65.1293H65.1062C65.1245 65.1293 65.1427 65.1288 65.1608 65.1275C66.1176 65.0655 66.9957 64.9213 67.8033 64.7146V67.6749C67.8032 67.6822 67.8022 67.6894 67.8022 67.6967C67.8022 69.2423 66.545 70.4996 64.9995 70.4996C63.4541 70.4996 62.1969 69.2423 62.1969 67.6967C62.1969 67.6959 62.1969 67.6946 62.1969 67.6946V64.7145C63.0044 64.9213 63.8824 65.0655 64.8393 65.1275ZM48.7019 78.5814C48.7019 68.6545 55.9662 68.5389 56.2784 68.5388H59.4513L58.9705 71.2927C58.9108 71.6343 59.0661 71.9776 59.3619 72.1585L60.892 73.0938L61.7723 74.1102C61.9356 74.2987 62.1699 74.4018 62.4107 74.4018C62.498 74.4018 62.5864 74.3883 62.6723 74.3603L65.0498 73.5849L67.4273 74.3603C67.5133 74.3883 67.6016 74.4018 67.689 74.4018C67.9298 74.4018 68.1642 74.2987 68.3274 74.1102L69.2078 73.0938L70.7378 72.1585C71.0335 71.9776 71.1888 71.6344 71.1292 71.2927L70.6485 68.5388H73.7277C73.7277 68.5388 73.7283 68.5388 73.7288 68.5388C73.7825 68.5388 75.5366 68.5528 77.3357 69.6547H73.2183C72.752 69.6547 72.374 70.0327 72.374 70.4991V80.3113H48.7019V78.5814Z" stroke="#3A3AE8" stroke-width="0.4" mask="url(#path-2-outside-1_197_245)"/>
<path d="M59.0066 50.048C59.6184 50.048 60.1143 49.5521 60.1143 48.9403C60.1143 48.3285 59.6184 47.8326 59.0066 47.8326C58.3949 47.8326 57.899 48.3285 57.899 48.9403C57.899 49.5521 58.3949 50.048 59.0066 50.048Z" fill="#3A3AE8" stroke="#3A3AE8" stroke-width="0.2"/>
<path d="M70.9933 50.048C71.6051 50.048 72.101 49.5521 72.101 48.9403C72.101 48.3285 71.6051 47.8326 70.9933 47.8326C70.3816 47.8326 69.8857 48.3285 69.8857 48.9403C69.8857 49.5521 70.3816 50.048 70.9933 50.048Z" fill="#3A3AE8" stroke="#3A3AE8" stroke-width="0.2"/>
<path d="M63.1151 52.7483C63.115 53.707 63.8949 54.4869 64.8537 54.4869H65.1464C66.1052 54.4869 66.8851 53.7072 66.8851 52.7483C66.8851 52.2266 66.4623 51.8039 65.9408 51.8039C65.4702 51.8039 65.0802 52.1479 65.0083 52.5983H64.992C64.9201 52.1479 64.5299 51.8039 64.0595 51.8039C63.5379 51.8039 63.1151 52.2266 63.1151 52.7483ZM63.1151 52.7483L63.2151 52.7483L63.1151 52.7483Z" fill="#3A3AE8" stroke="#3A3AE8" stroke-width="0.2"/>
<path d="M77.1584 76.0589H81.5489C82.0705 76.0589 82.4933 75.6362 82.4933 75.1146C82.4933 74.5929 82.0705 74.1703 81.5489 74.1703H77.1584C76.6369 74.1703 76.2141 74.5929 76.2141 75.1146C76.2141 75.6361 76.6368 76.0589 77.1584 76.0589Z" fill="#3A3AE8" stroke="#3A3AE8" stroke-width="0.2"/>
<path d="M77.1584 78.8736H81.5489C82.0705 78.8736 82.4933 78.4509 82.4933 77.9293C82.4933 77.4076 82.0705 76.985 81.5489 76.985H77.1584C76.6369 76.985 76.2141 77.4076 76.2141 77.9293C76.2141 78.4509 76.6368 78.8736 77.1584 78.8736Z" fill="#3A3AE8" stroke="#3A3AE8" stroke-width="0.2"/>
<path d="M68.8421 56.68C68.8424 56.6797 68.8419 56.6801 68.8407 56.6814C68.7979 56.7257 67.7952 57.7618 65.2081 57.7618C62.4539 57.7618 61.1146 56.6232 61.0536 56.5699C60.6681 56.2238 60.075 56.2531 59.7253 56.6367C59.3739 57.0221 59.4016 57.6194 59.7869 57.9707C59.8729 58.0492 61.6757 59.6504 65.2081 59.6504C68.7582 59.6504 70.1519 58.0642 70.3121 57.8657C70.6396 57.4597 70.5758 56.8653 70.1699 56.5378L70.1699 56.5378C69.7639 56.2105 69.1695 56.2739 68.8421 56.68ZM68.8421 56.68L68.9199 56.7429M68.8421 56.68C68.8421 56.6801 68.8421 56.6801 68.842 56.6801L68.9199 56.7429M68.9199 56.7429C69.2126 56.3797 69.7441 56.323 70.1071 56.6157C70.4701 56.9085 70.527 57.44 70.2342 57.8029C70.0899 57.9818 68.7233 59.5504 65.2081 59.5504C61.7082 59.5504 59.9283 57.9643 59.8542 57.8968C59.5098 57.5827 59.485 57.0486 59.7992 56.704C60.112 56.3609 60.6426 56.3349 60.9872 56.6447C61.0552 56.7043 62.4168 57.8618 65.2081 57.8618C67.8968 57.8618 68.9109 56.754 68.9199 56.7429Z" fill="#3A3AE8" stroke="#3A3AE8" stroke-width="0.2"/>
</g>
<defs>
<clipPath id="clip0_197_245">
<rect width="54" height="54" fill="white" transform="translate(38 28)"/>
</clipPath>
</defs>
</svg>
