<svg width="129" height="107" viewBox="0 0 129 107" fill="none" xmlns="http://www.w3.org/2000/svg">
<path fill-rule="evenodd" clip-rule="evenodd" d="M65.1479 106.999C90.0037 106.914 117.77 101.7 126.182 78.389C135.214 53.3593 121.508 26.5605 99.7171 11.2031C78.827 -3.51947 51.2518 -3.814 30.2917 10.8094C8.08563 26.3022 -6.39257 53.4005 2.81496 78.8097C11.3836 102.456 39.9226 107.085 65.1479 106.999Z" fill="#01FEBF" fill-opacity="0.1"/>
<path d="M84.6 63.0408H82.9853V42.3981C82.9853 42.0427 82.8441 41.7019 82.5928 41.4506C82.3415 41.1993 82.0007 41.0581 81.6453 41.0581H47.3547C46.9993 41.0581 46.6585 41.1993 46.4072 41.4506C46.1559 41.7019 46.0147 42.0427 46.0147 42.3981V63.0408H44.4C44.0446 63.0408 43.7038 63.182 43.4525 63.4333C43.2012 63.6846 43.06 64.0254 43.06 64.3808V66.163C43.0635 68.225 43.8842 70.2014 45.3422 71.6595C46.8003 73.1175 48.7767 73.9382 50.8387 73.9417H78.1613C80.2232 73.9382 82.1997 73.1175 83.6578 71.6595C85.1158 70.2014 85.9365 68.225 85.94 66.163V64.3808C85.94 64.0254 85.7988 63.6846 85.5475 63.4333C85.2962 63.182 84.9554 63.0408 84.6 63.0408ZM80.3053 43.7381V63.0408H48.6947V43.7381H80.3053ZM60.2053 65.7208H68.8014V66.8799H60.1986L60.2053 65.7208ZM83.26 66.163C83.26 67.5153 82.7228 68.8121 81.7666 69.7683C80.8104 70.7245 79.5136 71.2617 78.1613 71.2617H50.8387C49.4864 71.2617 48.1896 70.7245 47.2334 69.7683C46.2772 68.8121 45.74 67.5153 45.74 66.163V65.7208H57.5186V68.2199C57.5186 68.5753 57.6598 68.9161 57.9111 69.1674C58.1624 69.4187 58.5032 69.5599 58.8586 69.5599H70.1414C70.4968 69.5599 70.8376 69.4187 71.0889 69.1674C71.3402 68.9161 71.4814 68.5753 71.4814 68.2199V65.7208H83.26V66.163Z" fill="#3A3AE8"/>
</svg>
