<svg width="142" height="144" viewBox="0 0 142 144" fill="none" xmlns="http://www.w3.org/2000/svg">
<path fill-rule="evenodd" clip-rule="evenodd" d="M18.6807 54.6878C26.2699 32.4044 42.7304 10.7414 68.0102 12.2672C92.8305 13.7652 106.797 37.869 114.249 60.4559C121.56 82.6139 123.309 108.281 103.971 121.257C83.1919 135.199 53.666 131.043 33.0406 114.945C14.143 100.196 11.4846 75.8172 18.6807 54.6878Z" fill="#01FEBF" fill-opacity="0.1"/>
<path fill-rule="evenodd" clip-rule="evenodd" d="M59.6926 50.875C57.562 50.875 55.6143 52.0788 54.6615 53.9844L50.1526 63.0022C49.2149 64.8775 49.3981 67.1187 50.6278 68.8169L65.9441 89.9678C68.1898 93.0691 72.8102 93.0691 75.0558 89.9678L90.3722 68.8169C91.6018 67.1187 91.785 64.8775 90.8475 63.0022L86.3385 53.9844C85.3856 52.0788 83.438 50.875 81.3073 50.875H59.6926ZM58.0156 55.6615C58.3332 55.0262 58.9824 54.625 59.6926 54.625H64.2642L61.5857 64H53.8463L58.0156 55.6615ZM65.4857 64L68.1643 54.625H72.8357L75.5143 64H65.4857ZM75.4612 67.75H65.5387L70.5 83.8742L75.4612 67.75ZM74.1168 84.871L79.3848 67.75H86.5147L74.1168 84.871ZM79.4143 64L76.7357 54.625H81.3073C82.0175 54.625 82.6668 55.0262 82.9845 55.6615L87.1537 64H79.4143ZM54.4852 67.75H61.6152L66.8831 84.871L54.4852 67.75Z" fill="#3A3AE8"/>
</svg>
